<svg id="Layer_1" data-name="Layer 1" xmlns="http://www.w3.org/2000/svg" viewBox="0 0 91.40834 111.33057"><defs><style>.cls-1{fill:#231f20;}</style></defs><title>two</title><path class="cls-1" d="M3.67348,88.06738Q27.601,75.4419,40.14662,62.312,52.69082,49.18775,52.692,39.04883a11.43785,11.43785,0,0,0-2.16015-7.145q-2.16138-2.8235-6.813-2.82471a8.868,8.868,0,0,0-8.30811,4.73535Q32.75063,38.5503,33.08461,48.52L.01772,40.54443Q-.317,27.08472,5.66713,18.02881a36.24972,36.24972,0,0,1,16.6167-13.542A61.45538,61.45538,0,0,1,46.37758,0q15.6167,0,25.58936,5.4834,9.96972,5.48364,14.37353,13.709a34.75459,34.75459,0,0,1,4.40332,16.53321q0,15.29-11.46533,27.085Q67.81312,74.6106,48.20522,83.91357v.332q10.30151-.99684,26.08789-.99707H91.40834v28.082H3.67348Z"/></svg>