<svg id="Layer_1" data-name="Layer 1" xmlns="http://www.w3.org/2000/svg" viewBox="0 0 92.05566 112.99219"><defs><style>.cls-1{fill:#231f20;}</style></defs><title>three</title><path class="cls-1" d="M79.01172,8.30859q11.04932,8.3108,11.0498,23.92774,0,9.13989-4.07129,14.456a22.61057,22.61057,0,0,1-8.97265,7.39453q-4.90284,2.07934-7.56055,2.07715v.66455a29.7639,29.7639,0,0,1,8.55762,1.57862q5.06689,1.58057,9.55469,6.979,4.48682,5.40161,4.48632,15.70215A25.88444,25.88444,0,0,1,86.15723,97.9541a37.50437,37.50437,0,0,1-16.20118,11.1333,64.80686,64.80686,0,0,1-23.09765,3.90479q-20.10645,0-31.4043-6.39746Q4.15138,100.19995,0,85.07666l34.89453-14.124q-.334,7.812,2.65918,10.71728a10.94924,10.94924,0,0,0,7.97559,2.90821q9.63575,0,9.63769-8.30811,0-4.15211-2.40918-6.14844-2.41113-1.99365-7.89258-1.99365H37.3877V46.19385h5.31738q5.4829,0,7.89258-2.16016,2.40674-2.15772,2.40918-6.8125a9.17356,9.17356,0,0,0-2.16016-6.48047,7.76358,7.76358,0,0,0-5.98145-2.32617q-10.13817,0-9.9707,13.62549L1.49609,31.73779q1.82667-17.28,14.041-24.50927Q27.74951.00025,47.68945,0,67.96,0,79.01172,8.30859Z"/></svg>