<?xml version="1.0" encoding="utf-8"?>
<!-- Generator: Adobe Illustrator 23.0.1, SVG Export Plug-In . SVG Version: 6.00 Build 0)  -->
<svg version="1.1" id="Layer_1" xmlns="http://www.w3.org/2000/svg" xmlns:xlink="http://www.w3.org/1999/xlink" x="0px" y="0px"
	 width="110px" height="128px" viewBox="0 0 110 128" enable-background="new 0 0 110 128" xml:space="preserve">
<g>
	<g>
		<path fill="#FFFFFF" d="M87.981,13.915c7.366,5.541,11.05,13.516,11.05,23.928c0,6.093-1.357,10.912-4.071,14.456
			c-2.716,3.547-5.706,6.011-8.973,7.395c-3.269,1.386-5.79,2.077-7.561,2.077v0.665c2.326,0,5.178,0.527,8.558,1.579
			c3.378,1.054,6.563,3.38,9.555,6.979c2.991,3.601,4.486,8.835,4.486,15.702c0,6.426-1.968,12.047-5.898,16.866
			c-3.934,4.819-9.334,8.532-16.201,11.133c-6.87,2.602-14.568,3.905-23.098,3.905c-13.404,0-23.873-2.131-31.404-6.397
			c-7.535-4.263-12.687-11.437-15.454-21.518l34.895-14.124c-0.223,5.208,0.665,8.781,2.659,10.717
			c1.994,1.939,4.652,2.908,7.976,2.908c6.424,0,9.638-2.768,9.638-8.308c0-2.768-0.805-4.819-2.409-6.148
			c-1.607-1.329-4.237-1.994-7.893-1.994h-7.478V51.8h5.317c3.655,0,6.285-0.719,7.893-2.16c1.604-1.438,2.409-3.71,2.409-6.813
			c0-2.768-0.722-4.928-2.16-6.48c-1.44-1.55-3.435-2.326-5.981-2.326c-6.759,0-10.082,4.543-9.971,13.625L10.465,37.344
			c1.218-11.52,5.898-19.691,14.041-24.509c8.142-4.819,18.859-7.229,32.152-7.229C70.172,5.607,80.613,8.377,87.981,13.915z"/>
	</g>
</g>
</svg>
