<svg id="BACKGROUND" xmlns="http://www.w3.org/2000/svg" viewBox="0 0 806 808.61538"><defs><style>.cls-1{fill:#223b45;}.cls-2{fill:#fff;}</style></defs><title>Space</title><rect class="cls-1" width="806" height="808.61538"/><circle class="cls-2" cx="63.46154" cy="56.07692" r="2.53846"/><circle class="cls-2" cx="68.30769" cy="276.92308" r="2.53846"/><circle class="cls-2" cx="98.07692" cy="189.23077" r="2.53846"/><circle class="cls-2" cx="620.30769" cy="390.92308" r="2.53846"/><circle class="cls-2" cx="45.46154" cy="765.23077" r="2.53846"/><circle class="cls-2" cx="310.15385" cy="660" r="2.53846"/><circle class="cls-2" cx="469.15385" cy="617.53846" r="2.53846"/><circle class="cls-2" cx="82.15385" cy="426.23077" r="2.53846"/><circle class="cls-2" cx="765" cy="286.15385" r="2.53846"/><circle class="cls-2" cx="253.61538" cy="299.07692" r="2.53846"/><circle class="cls-2" cx="105.23077" cy="619.61538" r="2.53846"/><circle class="cls-2" cx="242.76923" cy="744.69231" r="2.53846"/><circle class="cls-2" cx="417.23077" cy="801.92308" r="2.53846"/><circle class="cls-2" cx="27.46154" cy="626.76923" r="2.53846"/><circle class="cls-2" cx="758.07692" cy="557.53846" r="2.53846"/><circle class="cls-2" cx="604.84615" cy="739.38462" r="2.53846"/><circle class="cls-2" cx="770.76923" cy="789.46154" r="2.53846"/><circle class="cls-2" cx="474.69231" cy="203.07692" r="2.53846"/><circle class="cls-2" cx="569.19231" cy="227.19231" r="0.80769"/><circle class="cls-2" cx="569.53846" cy="86.07692" r="2.53846"/><circle class="cls-2" cx="240.92308" cy="51" r="2.53846"/><circle class="cls-2" cx="369.23077" cy="126.46154" r="2.53846"/><circle class="cls-2" cx="670.30772" cy="130.92291" r="2.53846"/><circle class="cls-2" cx="773.53846" cy="30.46154" r="2.53846"/><circle class="cls-2" cx="729.19241" cy="487.19231" r="0.80769"/><circle class="cls-2" cx="691.38462" cy="314.88462" r="0.80769"/><circle class="cls-2" cx="559.19241" cy="567.19237" r="0.80769"/><circle class="cls-2" cx="650.76923" cy="657.34615" r="0.80769"/><circle class="cls-2" cx="179.19218" cy="487.19232" r="0.80769"/><circle class="cls-2" cx="393.34615" cy="725.53846" r="0.80769"/><circle class="cls-2" cx="163.38462" cy="434.88462" r="0.80769"/><circle class="cls-2" cx="145.84615" cy="528.11538" r="0.80769"/><circle class="cls-2" cx="93.23077" cy="494.76923" r="0.80769"/><circle class="cls-2" cx="479.19236" cy="647.19242" r="0.80769"/><circle class="cls-2" cx="464.30769" cy="749.65385" r="0.80769"/><circle class="cls-2" cx="354.57692" cy="685.84615" r="0.80769"/><circle class="cls-2" cx="199.38462" cy="630.57692" r="0.80769"/><circle class="cls-2" cx="202.26923" cy="725.53846" r="0.80769"/><circle class="cls-2" cx="559.19236" cy="147.19221" r="0.80769"/><circle class="cls-2" cx="149.19211" cy="147.19201" r="0.80769"/><circle class="cls-2" cx="160.61538" cy="247.5" r="0.80769"/><circle class="cls-2" cx="196.61538" cy="88.73077" r="0.80769"/><circle class="cls-2" cx="16.61538" cy="246.34615" r="0.80769"/></svg>