<?xml version="1.0" encoding="utf-8"?>
<!-- Generator: Adobe Illustrator 23.0.1, SVG Export Plug-In . SVG Version: 6.00 Build 0)  -->
<svg version="1.1" id="Layer_1" xmlns="http://www.w3.org/2000/svg" xmlns:xlink="http://www.w3.org/1999/xlink" x="0px" y="0px"
	 width="492.106px" height="95.988px" viewBox="0 0 492.106 95.988" enable-background="new 0 0 492.106 95.988"
	 xml:space="preserve">
<g>
	<path fill="#010101" d="M78.696,12.48c7.481,8.046,11.222,19.551,11.222,34.514s-3.741,26.467-11.222,34.513
		c-7.481,8.046-18.47,12.069-32.961,12.069H0V0.412h45.735C60.227,0.412,71.215,4.435,78.696,12.48z M53.076,64.78
		c2.164-3.575,3.247-9.504,3.247-17.786c0-8.28-1.083-14.208-3.247-17.786c-2.166-3.575-6.165-5.364-11.999-5.364H32.89v46.3h8.187
		C46.911,70.144,50.91,68.358,53.076,64.78z"/>
	<path fill="#010101" d="M142.287,62.663h-9.034v30.914h-32.184V0.412h50.535c12.422,0,21.809,2.611,28.162,7.834
		c6.352,5.223,9.528,13.011,9.528,23.362c0,13.646-5.6,22.821-16.798,27.526l22.021,34.443h-35.713L142.287,62.663z M133.252,41.065
		h11.716c4.14,0,7.08-0.635,8.822-1.906c1.74-1.271,2.612-3.504,2.612-6.705c0-3.105-0.872-5.315-2.612-6.634
		c-1.742-1.317-4.682-1.976-8.822-1.976h-11.716V41.065z"/>
	<path fill="#010101" d="M492.106,93.577h-28.654l1-32.326l-0.576-31.337h-0.424l-18.068,63.663h-26.256l-17.786-63.663h-0.564
		l0.423,31.337v32.326h-28.796V0.412h46.018l10.729,41.359l4.093,17.363h0.283l4.094-17.363l10.729-41.359h43.758V93.577z"/>
	<g>
		<path fill="#010101" d="M350.761,12.634C342.433,4.213,330.833,0,315.965,0c-9.789,0-18.233,1.884-25.338,5.646
			c-3.593,1.903-5.553,4.438-8.303,7.219c-6.799,11.181-10.705,19.254-14,29c-2.495,7.383-5.079,15.279-9,21
			c-0.416,1.259-1.439,2.036-2,3c-2.166,3.719-6.463,5.419-11.263,5.419c-4.799,0-8.306-1.857-10.516-5.576
			c-2.212-3.716-3.317-9.621-3.317-17.715c0-8.092,1.105-13.997,3.317-17.715c2.21-3.717,5.717-5.576,10.516-5.576
			c4.8,0,8.28,1.859,10.446,5.576c2.164,3.718,3.247,9.623,3.247,17.715c0,4.359-0.325,8.061-0.953,11.151
			c2.915-5.105,4.947-11.09,7.042-17.288c3.323-9.831,6.907-20.409,14.449-29.762C272.008,4.04,260.602,0,246.062,0
			c-9.789,0-18.233,1.884-25.338,5.646c-7.106,3.765-12.563,9.246-16.375,16.445s-5.717,15.834-5.717,25.903
			c0,10.071,1.905,18.704,5.717,25.903s9.268,12.682,16.375,16.445c7.104,3.765,15.549,5.646,25.338,5.646
			c14.262,0,25.777-3.637,33.263-12.123c4.551-5.159,6.648-13.869,10-23c4.014-10.933,9-22,15-29
			c0.47-0.548,0.789-1.024,1.125-1.587c2.21-3.717,5.717-5.576,10.516-5.576c4.8,0,8.28,1.859,10.446,5.576
			c2.164,3.718,3.247,9.623,3.247,17.715c0,8.095-1.083,13.999-3.247,17.715c-2.166,3.719-5.646,5.576-10.446,5.576
			c-4.799,0-8.306-1.857-10.516-5.576c-2.212-3.716-3.317-9.621-3.317-17.715c0-5.321,0.488-9.676,1.444-13.106
			c-4.947,6.648-8.627,16.634-12.213,26.4c-3.152,8.586-3.939,17.479-9.038,22.578c0,1,1.889,2.141,3.896,3.603
			c1.524,1.11,3.118,2.191,4.406,2.873c7.104,3.765,15.549,5.646,25.338,5.646c14.868,0,26.467-4.21,34.796-12.634
			c8.329-8.421,12.493-20.208,12.493-35.36C363.254,32.844,359.09,21.057,350.761,12.634z"/>
	</g>
</g>
</svg>
